<svg width="1183" height="596" viewBox="0 0 1183 596" fill="none" xmlns="http://www.w3.org/2000/svg">
<path d="M580 47H50C27.3726 47 16.0589 47 9.02944 54.0294C2.00001 61.0589 2.00001 72.3726 2.00001 95V255C2.00001 277.627 2.00001 288.941 9.02944 295.971C16.0589 303 27.3726 303 50 303H578.796" stroke="#B6AEE9" stroke-width="4" stroke-linecap="square" stroke-linejoin="round" stroke-dasharray="2 10"/>
<circle cx="587" cy="303" r="7" fill="#E5E5E5" stroke="#B6AEE9" stroke-width="4" stroke-linecap="round" stroke-linejoin="round"/>
<path d="M572 55L580 47L572 39" stroke="#B6AEE9" stroke-width="4" stroke-linecap="round" stroke-linejoin="round"/>
<rect x="242" y="261" width="595" height="93" rx="12" fill="#EDECFA"/>
<path d="M284.72 319V296.28H294.192C295.195 296.28 296.112 296.493 296.944 296.92C297.797 297.325 298.523 297.88 299.12 298.584C299.739 299.267 300.219 300.045 300.56 300.92C300.901 301.773 301.072 302.648 301.072 303.544C301.072 304.483 300.912 305.389 300.592 306.264C300.272 307.139 299.813 307.917 299.216 308.6C298.64 309.283 297.936 309.827 297.104 310.232C296.293 310.637 295.387 310.84 294.384 310.84H287.6V319H284.72ZM287.6 308.28H294.224C294.821 308.28 295.355 308.163 295.824 307.928C296.315 307.672 296.731 307.331 297.072 306.904C297.413 306.456 297.68 305.944 297.872 305.368C298.064 304.792 298.16 304.184 298.16 303.544C298.16 302.883 298.043 302.264 297.808 301.688C297.595 301.112 297.296 300.611 296.912 300.184C296.549 299.757 296.112 299.427 295.6 299.192C295.109 298.957 294.587 298.84 294.032 298.84H287.6V308.28ZM313.042 304.76C311.634 304.803 310.386 305.165 309.298 305.848C308.231 306.531 307.474 307.48 307.026 308.696V319H304.21V302.296H306.834V306.168C307.41 305.016 308.167 304.088 309.106 303.384C310.044 302.659 311.047 302.253 312.114 302.168C312.327 302.168 312.508 302.168 312.658 302.168C312.807 302.168 312.935 302.179 313.042 302.2V304.76ZM322.756 319.32C321.497 319.32 320.345 319.085 319.3 318.616C318.276 318.147 317.39 317.517 316.644 316.728C315.918 315.939 315.353 315.021 314.948 313.976C314.542 312.931 314.34 311.832 314.34 310.68C314.34 309.507 314.542 308.397 314.948 307.352C315.374 306.307 315.95 305.389 316.676 304.6C317.422 303.811 318.308 303.181 319.332 302.712C320.377 302.243 321.518 302.008 322.756 302.008C323.993 302.008 325.134 302.243 326.18 302.712C327.225 303.181 328.11 303.811 328.836 304.6C329.582 305.389 330.158 306.307 330.564 307.352C330.99 308.397 331.204 309.507 331.204 310.68C331.204 311.832 331.001 312.931 330.596 313.976C330.19 315.021 329.614 315.939 328.868 316.728C328.121 317.517 327.225 318.147 326.18 318.616C325.156 319.085 324.014 319.32 322.756 319.32ZM317.22 310.712C317.22 311.587 317.358 312.397 317.636 313.144C317.934 313.891 318.329 314.541 318.82 315.096C319.332 315.651 319.918 316.088 320.58 316.408C321.262 316.728 321.988 316.888 322.756 316.888C323.524 316.888 324.238 316.728 324.9 316.408C325.582 316.088 326.18 315.651 326.692 315.096C327.204 314.52 327.598 313.859 327.876 313.112C328.174 312.344 328.324 311.523 328.324 310.648C328.324 309.795 328.174 308.995 327.876 308.248C327.598 307.48 327.204 306.819 326.692 306.264C326.18 305.688 325.582 305.24 324.9 304.92C324.238 304.6 323.524 304.44 322.756 304.44C321.988 304.44 321.262 304.611 320.58 304.952C319.918 305.272 319.332 305.72 318.82 306.296C318.329 306.851 317.934 307.512 317.636 308.28C317.358 309.027 317.22 309.837 317.22 310.712ZM338.885 319L332.293 302.296H335.205L340.485 316.536L345.797 302.296H348.485L341.893 319H338.885ZM351.272 319V302.296H354.088V319H351.272ZM351.272 299.16V295.64H354.088V299.16H351.272ZM365.527 319.32C364.375 319.32 363.308 319.085 362.327 318.616C361.346 318.147 360.503 317.517 359.799 316.728C359.095 315.939 358.54 315.021 358.135 313.976C357.751 312.931 357.559 311.832 357.559 310.68C357.559 309.507 357.74 308.397 358.103 307.352C358.487 306.285 359.01 305.357 359.671 304.568C360.354 303.779 361.154 303.16 362.071 302.712C363.01 302.243 364.034 302.008 365.143 302.008C366.487 302.008 367.682 302.36 368.727 303.064C369.794 303.768 370.636 304.621 371.255 305.624V295.64H374.071V315.544C374.071 316.205 374.37 316.547 374.967 316.568V319C374.668 319.043 374.423 319.075 374.231 319.096C374.06 319.117 373.89 319.128 373.719 319.128C373.164 319.128 372.674 318.947 372.247 318.584C371.842 318.2 371.639 317.763 371.639 317.272V315.864C370.978 316.952 370.092 317.805 368.983 318.424C367.895 319.021 366.743 319.32 365.527 319.32ZM366.199 316.888C366.711 316.888 367.234 316.792 367.767 316.6C368.322 316.408 368.834 316.141 369.303 315.8C369.794 315.459 370.21 315.064 370.551 314.616C370.914 314.147 371.148 313.656 371.255 313.144V308.344C371.063 307.811 370.775 307.309 370.391 306.84C370.007 306.349 369.57 305.933 369.079 305.592C368.61 305.229 368.098 304.952 367.543 304.76C367.01 304.547 366.476 304.44 365.943 304.44C365.111 304.44 364.354 304.621 363.671 304.984C363.01 305.325 362.434 305.795 361.943 306.392C361.474 306.968 361.111 307.64 360.855 308.408C360.599 309.155 360.471 309.923 360.471 310.712C360.471 311.544 360.62 312.344 360.919 313.112C361.218 313.859 361.623 314.509 362.135 315.064C362.647 315.619 363.244 316.067 363.927 316.408C364.631 316.728 365.388 316.888 366.199 316.888ZM386.164 319.32C384.905 319.32 383.753 319.096 382.708 318.648C381.663 318.179 380.767 317.549 380.02 316.76C379.273 315.971 378.687 315.053 378.26 314.008C377.855 312.941 377.652 311.821 377.652 310.648C377.652 309.475 377.855 308.365 378.26 307.32C378.687 306.275 379.273 305.357 380.02 304.568C380.788 303.779 381.695 303.16 382.74 302.712C383.785 302.243 384.937 302.008 386.196 302.008C387.455 302.008 388.596 302.243 389.62 302.712C390.665 303.181 391.551 303.811 392.276 304.6C393.001 305.368 393.556 306.275 393.94 307.32C394.345 308.344 394.548 309.411 394.548 310.52C394.548 310.755 394.537 310.968 394.516 311.16C394.516 311.352 394.505 311.501 394.484 311.608H380.628C380.692 312.44 380.884 313.197 381.204 313.88C381.524 314.563 381.94 315.149 382.452 315.64C382.964 316.131 383.54 316.515 384.18 316.792C384.841 317.069 385.535 317.208 386.26 317.208C386.772 317.208 387.273 317.144 387.764 317.016C388.255 316.867 388.713 316.675 389.14 316.44C389.567 316.205 389.94 315.917 390.26 315.576C390.601 315.235 390.857 314.851 391.028 314.424L393.46 315.096C393.183 315.715 392.799 316.28 392.308 316.792C391.839 317.304 391.284 317.752 390.644 318.136C390.025 318.499 389.332 318.787 388.564 319C387.796 319.213 386.996 319.32 386.164 319.32ZM391.892 309.528C391.828 308.739 391.625 308.013 391.284 307.352C390.964 306.669 390.548 306.093 390.036 305.624C389.545 305.155 388.969 304.792 388.308 304.536C387.647 304.259 386.943 304.12 386.196 304.12C385.449 304.12 384.745 304.259 384.084 304.536C383.423 304.792 382.836 305.165 382.324 305.656C381.833 306.125 381.428 306.691 381.108 307.352C380.809 308.013 380.628 308.739 380.564 309.528H391.892ZM421.644 316.44V319H406.22V296.28H421.356V298.84H409.1V306.2H419.756V308.6H409.1V316.44H421.644ZM426.235 302.296L430.811 308.44L431.067 308.952L431.355 308.44L435.899 302.296H438.875L432.635 310.68L438.907 319H435.931L431.355 312.888L431.067 312.408L430.811 312.888L426.235 319H423.259L429.531 310.68L423.291 302.296H426.235ZM450.545 319.32C449.159 319.32 447.932 318.979 446.865 318.296C445.82 317.613 444.988 316.749 444.369 315.704V325.816H441.553V302.296H444.049V305.432C444.711 304.408 445.564 303.587 446.609 302.968C447.676 302.328 448.849 302.008 450.129 302.008C451.281 302.008 452.337 302.243 453.297 302.712C454.257 303.181 455.089 303.821 455.793 304.632C456.497 305.421 457.041 306.339 457.425 307.384C457.831 308.429 458.033 309.517 458.033 310.648C458.033 311.843 457.852 312.973 457.489 314.04C457.127 315.085 456.615 316.003 455.953 316.792C455.292 317.56 454.503 318.179 453.585 318.648C452.668 319.096 451.655 319.32 450.545 319.32ZM449.681 316.888C450.513 316.888 451.26 316.717 451.921 316.376C452.604 316.013 453.18 315.544 453.649 314.968C454.14 314.371 454.513 313.699 454.769 312.952C455.025 312.205 455.153 311.437 455.153 310.648C455.153 309.816 455.004 309.027 454.705 308.28C454.407 307.512 454.001 306.851 453.489 306.296C452.977 305.72 452.369 305.272 451.665 304.952C450.983 304.611 450.236 304.44 449.425 304.44C448.913 304.44 448.38 304.547 447.825 304.76C447.292 304.952 446.78 305.219 446.289 305.56C445.82 305.88 445.404 306.275 445.041 306.744C444.7 307.192 444.476 307.672 444.369 308.184V312.952C444.604 313.507 444.903 314.029 445.265 314.52C445.628 314.989 446.044 315.405 446.513 315.768C446.983 316.109 447.484 316.387 448.017 316.6C448.551 316.792 449.105 316.888 449.681 316.888ZM468.883 319.32C467.624 319.32 466.472 319.096 465.427 318.648C464.381 318.179 463.485 317.549 462.739 316.76C461.992 315.971 461.405 315.053 460.979 314.008C460.573 312.941 460.371 311.821 460.371 310.648C460.371 309.475 460.573 308.365 460.979 307.32C461.405 306.275 461.992 305.357 462.739 304.568C463.507 303.779 464.413 303.16 465.459 302.712C466.504 302.243 467.656 302.008 468.915 302.008C470.173 302.008 471.315 302.243 472.339 302.712C473.384 303.181 474.269 303.811 474.995 304.6C475.72 305.368 476.275 306.275 476.659 307.32C477.064 308.344 477.267 309.411 477.267 310.52C477.267 310.755 477.256 310.968 477.235 311.16C477.235 311.352 477.224 311.501 477.203 311.608H463.347C463.411 312.44 463.603 313.197 463.923 313.88C464.243 314.563 464.659 315.149 465.171 315.64C465.683 316.131 466.259 316.515 466.899 316.792C467.56 317.069 468.253 317.208 468.979 317.208C469.491 317.208 469.992 317.144 470.483 317.016C470.973 316.867 471.432 316.675 471.859 316.44C472.285 316.205 472.659 315.917 472.979 315.576C473.32 315.235 473.576 314.851 473.747 314.424L476.179 315.096C475.901 315.715 475.517 316.28 475.027 316.792C474.557 317.304 474.003 317.752 473.363 318.136C472.744 318.499 472.051 318.787 471.283 319C470.515 319.213 469.715 319.32 468.883 319.32ZM474.611 309.528C474.547 308.739 474.344 308.013 474.003 307.352C473.683 306.669 473.267 306.093 472.755 305.624C472.264 305.155 471.688 304.792 471.027 304.536C470.365 304.259 469.661 304.12 468.915 304.12C468.168 304.12 467.464 304.259 466.803 304.536C466.141 304.792 465.555 305.165 465.043 305.656C464.552 306.125 464.147 306.691 463.827 307.352C463.528 308.013 463.347 308.739 463.283 309.528H474.611ZM479.277 310.616C479.277 309.443 479.48 308.333 479.885 307.288C480.29 306.243 480.866 305.336 481.613 304.568C482.36 303.779 483.245 303.16 484.269 302.712C485.314 302.243 486.477 302.008 487.757 302.008C489.421 302.008 490.85 302.381 492.045 303.128C493.261 303.853 494.178 304.835 494.797 306.072L492.045 306.936C491.618 306.147 491.021 305.539 490.253 305.112C489.485 304.664 488.632 304.44 487.693 304.44C486.925 304.44 486.2 304.6 485.517 304.92C484.834 305.219 484.248 305.645 483.757 306.2C483.266 306.755 482.872 307.405 482.573 308.152C482.296 308.899 482.157 309.72 482.157 310.616C482.157 311.491 482.306 312.312 482.605 313.08C482.904 313.848 483.298 314.52 483.789 315.096C484.301 315.651 484.888 316.088 485.549 316.408C486.232 316.728 486.957 316.888 487.725 316.888C488.216 316.888 488.696 316.824 489.165 316.696C489.656 316.547 490.093 316.355 490.477 316.12C490.882 315.885 491.234 315.619 491.533 315.32C491.832 315 492.045 314.659 492.173 314.296L494.925 315.128C494.669 315.747 494.306 316.312 493.837 316.824C493.389 317.336 492.856 317.773 492.237 318.136C491.618 318.499 490.925 318.787 490.157 319C489.41 319.213 488.621 319.32 487.789 319.32C486.53 319.32 485.378 319.085 484.333 318.616C483.288 318.147 482.392 317.517 481.645 316.728C480.898 315.939 480.312 315.021 479.885 313.976C479.48 312.909 479.277 311.789 479.277 310.616ZM506.756 318.168C506.585 318.253 506.361 318.36 506.084 318.488C505.806 318.595 505.486 318.712 505.124 318.84C504.782 318.947 504.398 319.032 503.972 319.096C503.566 319.181 503.14 319.224 502.692 319.224C501.668 319.224 500.782 318.947 500.036 318.392C499.289 317.816 498.916 316.931 498.916 315.736V304.504H496.644V302.296H498.916V296.728H501.732V302.296H505.476V304.504H501.732V314.872C501.774 315.491 501.977 315.939 502.34 316.216C502.702 316.493 503.129 316.632 503.62 316.632C504.174 316.632 504.676 316.547 505.124 316.376C505.593 316.184 505.913 316.035 506.084 315.928L506.756 318.168ZM516.539 319.32C515.28 319.32 514.128 319.096 513.083 318.648C512.038 318.179 511.142 317.549 510.395 316.76C509.648 315.971 509.062 315.053 508.635 314.008C508.23 312.941 508.027 311.821 508.027 310.648C508.027 309.475 508.23 308.365 508.635 307.32C509.062 306.275 509.648 305.357 510.395 304.568C511.163 303.779 512.07 303.16 513.115 302.712C514.16 302.243 515.312 302.008 516.571 302.008C517.83 302.008 518.971 302.243 519.995 302.712C521.04 303.181 521.926 303.811 522.651 304.6C523.376 305.368 523.931 306.275 524.315 307.32C524.72 308.344 524.923 309.411 524.923 310.52C524.923 310.755 524.912 310.968 524.891 311.16C524.891 311.352 524.88 311.501 524.859 311.608H511.003C511.067 312.44 511.259 313.197 511.579 313.88C511.899 314.563 512.315 315.149 512.827 315.64C513.339 316.131 513.915 316.515 514.555 316.792C515.216 317.069 515.91 317.208 516.635 317.208C517.147 317.208 517.648 317.144 518.139 317.016C518.63 316.867 519.088 316.675 519.515 316.44C519.942 316.205 520.315 315.917 520.635 315.576C520.976 315.235 521.232 314.851 521.403 314.424L523.835 315.096C523.558 315.715 523.174 316.28 522.683 316.792C522.214 317.304 521.659 317.752 521.019 318.136C520.4 318.499 519.707 318.787 518.939 319C518.171 319.213 517.371 319.32 516.539 319.32ZM522.267 309.528C522.203 308.739 522 308.013 521.659 307.352C521.339 306.669 520.923 306.093 520.411 305.624C519.92 305.155 519.344 304.792 518.683 304.536C518.022 304.259 517.318 304.12 516.571 304.12C515.824 304.12 515.12 304.259 514.459 304.536C513.798 304.792 513.211 305.165 512.699 305.656C512.208 306.125 511.803 306.691 511.483 307.352C511.184 308.013 511.003 308.739 510.939 309.528H522.267ZM534.933 319.32C533.781 319.32 532.715 319.085 531.733 318.616C530.752 318.147 529.909 317.517 529.205 316.728C528.501 315.939 527.947 315.021 527.541 313.976C527.157 312.931 526.965 311.832 526.965 310.68C526.965 309.507 527.147 308.397 527.509 307.352C527.893 306.285 528.416 305.357 529.077 304.568C529.76 303.779 530.56 303.16 531.477 302.712C532.416 302.243 533.44 302.008 534.549 302.008C535.893 302.008 537.088 302.36 538.133 303.064C539.2 303.768 540.043 304.621 540.661 305.624V295.64H543.477V315.544C543.477 316.205 543.776 316.547 544.373 316.568V319C544.075 319.043 543.829 319.075 543.637 319.096C543.467 319.117 543.296 319.128 543.125 319.128C542.571 319.128 542.08 318.947 541.653 318.584C541.248 318.2 541.045 317.763 541.045 317.272V315.864C540.384 316.952 539.499 317.805 538.389 318.424C537.301 319.021 536.149 319.32 534.933 319.32ZM535.605 316.888C536.117 316.888 536.64 316.792 537.173 316.6C537.728 316.408 538.24 316.141 538.709 315.8C539.2 315.459 539.616 315.064 539.957 314.616C540.32 314.147 540.555 313.656 540.661 313.144V308.344C540.469 307.811 540.181 307.309 539.797 306.84C539.413 306.349 538.976 305.933 538.485 305.592C538.016 305.229 537.504 304.952 536.949 304.76C536.416 304.547 535.883 304.44 535.349 304.44C534.517 304.44 533.76 304.621 533.077 304.984C532.416 305.325 531.84 305.795 531.349 306.392C530.88 306.968 530.517 307.64 530.261 308.408C530.005 309.155 529.877 309.923 529.877 310.712C529.877 311.544 530.027 312.344 530.325 313.112C530.624 313.859 531.029 314.509 531.541 315.064C532.053 315.619 532.651 316.067 533.333 316.408C534.037 316.728 534.795 316.888 535.605 316.888ZM562.632 296.28H565.064L574.344 319H571.272L568.584 312.344H559.048L556.392 319H553.32L562.632 296.28ZM567.944 310.104L563.848 299.608L559.624 310.104H567.944ZM591.424 319H588.608V309.656C588.608 307.864 588.331 306.563 587.776 305.752C587.243 304.941 586.422 304.536 585.312 304.536C584.736 304.536 584.16 304.653 583.584 304.888C583.008 305.101 582.464 305.4 581.952 305.784C581.44 306.168 580.992 306.627 580.608 307.16C580.224 307.693 579.936 308.28 579.744 308.92V319H576.928V302.296H579.488V305.88C580.15 304.707 581.099 303.768 582.336 303.064C583.595 302.36 584.96 302.008 586.432 302.008C587.392 302.008 588.192 302.189 588.832 302.552C589.472 302.893 589.984 303.384 590.368 304.024C590.752 304.643 591.019 305.379 591.168 306.232C591.339 307.085 591.424 308.013 591.424 309.016V319ZM601.659 319.32C600.315 319.32 598.993 319.117 597.691 318.712C596.39 318.285 595.27 317.677 594.331 316.888L595.547 315C596.529 315.747 597.51 316.312 598.491 316.696C599.473 317.059 600.507 317.24 601.595 317.24C602.811 317.24 603.771 317.005 604.475 316.536C605.201 316.045 605.563 315.363 605.563 314.488C605.563 314.083 605.467 313.741 605.275 313.464C605.083 313.165 604.795 312.909 604.411 312.696C604.027 312.483 603.537 312.291 602.939 312.12C602.342 311.949 601.649 311.768 600.859 311.576C599.857 311.32 598.993 311.075 598.267 310.84C597.542 310.605 596.945 310.328 596.475 310.008C596.006 309.688 595.665 309.304 595.451 308.856C595.238 308.408 595.131 307.853 595.131 307.192C595.131 306.36 595.291 305.624 595.611 304.984C595.953 304.323 596.411 303.779 596.987 303.352C597.563 302.904 598.235 302.573 599.003 302.36C599.793 302.125 600.635 302.008 601.531 302.008C602.79 302.008 603.963 302.211 605.051 302.616C606.139 303.021 607.057 303.555 607.803 304.216L606.523 305.912C605.819 305.293 605.03 304.835 604.155 304.536C603.281 304.216 602.385 304.056 601.467 304.056C600.443 304.056 599.569 304.28 598.843 304.728C598.139 305.155 597.787 305.848 597.787 306.808C597.787 307.192 597.851 307.512 597.979 307.768C598.129 308.024 598.363 308.248 598.683 308.44C599.003 308.632 599.409 308.803 599.899 308.952C600.411 309.101 601.019 309.261 601.723 309.432C602.833 309.688 603.793 309.955 604.603 310.232C605.435 310.488 606.118 310.797 606.651 311.16C607.206 311.523 607.611 311.949 607.867 312.44C608.145 312.931 608.283 313.528 608.283 314.232C608.283 315.789 607.686 317.027 606.491 317.944C605.297 318.861 603.686 319.32 601.659 319.32ZM632.231 302.296H634.951L627.847 319H625.511L622.151 310.84L618.823 319H616.487L609.383 302.296H612.071L617.831 316.216L620.647 309.272L617.767 302.328H620.103L622.151 307.672L624.199 302.328H626.535L623.687 309.272L626.503 316.216L632.231 302.296ZM644.414 319.32C643.155 319.32 642.003 319.096 640.958 318.648C639.913 318.179 639.017 317.549 638.27 316.76C637.523 315.971 636.937 315.053 636.51 314.008C636.105 312.941 635.902 311.821 635.902 310.648C635.902 309.475 636.105 308.365 636.51 307.32C636.937 306.275 637.523 305.357 638.27 304.568C639.038 303.779 639.945 303.16 640.99 302.712C642.035 302.243 643.187 302.008 644.446 302.008C645.705 302.008 646.846 302.243 647.87 302.712C648.915 303.181 649.801 303.811 650.526 304.6C651.251 305.368 651.806 306.275 652.19 307.32C652.595 308.344 652.798 309.411 652.798 310.52C652.798 310.755 652.787 310.968 652.766 311.16C652.766 311.352 652.755 311.501 652.734 311.608H638.878C638.942 312.44 639.134 313.197 639.454 313.88C639.774 314.563 640.19 315.149 640.702 315.64C641.214 316.131 641.79 316.515 642.43 316.792C643.091 317.069 643.785 317.208 644.51 317.208C645.022 317.208 645.523 317.144 646.014 317.016C646.505 316.867 646.963 316.675 647.39 316.44C647.817 316.205 648.19 315.917 648.51 315.576C648.851 315.235 649.107 314.851 649.278 314.424L651.71 315.096C651.433 315.715 651.049 316.28 650.558 316.792C650.089 317.304 649.534 317.752 648.894 318.136C648.275 318.499 647.582 318.787 646.814 319C646.046 319.213 645.246 319.32 644.414 319.32ZM650.142 309.528C650.078 308.739 649.875 308.013 649.534 307.352C649.214 306.669 648.798 306.093 648.286 305.624C647.795 305.155 647.219 304.792 646.558 304.536C645.897 304.259 645.193 304.12 644.446 304.12C643.699 304.12 642.995 304.259 642.334 304.536C641.673 304.792 641.086 305.165 640.574 305.656C640.083 306.125 639.678 306.691 639.358 307.352C639.059 308.013 638.878 308.739 638.814 309.528H650.142ZM664.76 304.76C663.352 304.803 662.104 305.165 661.016 305.848C659.95 306.531 659.192 307.48 658.744 308.696V319H655.928V302.296H658.552V306.168C659.128 305.016 659.886 304.088 660.824 303.384C661.763 302.659 662.766 302.253 663.832 302.168C664.046 302.168 664.227 302.168 664.376 302.168C664.526 302.168 664.654 302.179 664.76 302.2V304.76Z" fill="#4F41C2"/>
<rect x="331" y="503" width="415" height="93" rx="46.5" fill="#EDECFA"/>
<path d="M408.72 561V538.28H416.592C418.405 538.28 419.995 538.579 421.36 539.176C422.747 539.773 423.899 540.584 424.816 541.608C425.733 542.632 426.416 543.837 426.864 545.224C427.333 546.589 427.568 548.051 427.568 549.608C427.568 551.336 427.312 552.904 426.8 554.312C426.288 555.699 425.552 556.893 424.592 557.896C423.632 558.877 422.469 559.645 421.104 560.2C419.76 560.733 418.256 561 416.592 561H408.72ZM424.656 549.608C424.656 548.328 424.475 547.155 424.112 546.088C423.771 545 423.248 544.072 422.544 543.304C421.861 542.536 421.019 541.939 420.016 541.512C419.013 541.064 417.872 540.84 416.592 540.84H411.6V558.44H416.592C417.893 558.44 419.045 558.216 420.048 557.768C421.072 557.32 421.915 556.701 422.576 555.912C423.259 555.123 423.771 554.195 424.112 553.128C424.475 552.04 424.656 550.867 424.656 549.608ZM438.474 561.32C437.216 561.32 436.064 561.085 435.018 560.616C433.994 560.147 433.109 559.517 432.362 558.728C431.637 557.939 431.072 557.021 430.666 555.976C430.261 554.931 430.058 553.832 430.058 552.68C430.058 551.507 430.261 550.397 430.666 549.352C431.093 548.307 431.669 547.389 432.394 546.6C433.141 545.811 434.026 545.181 435.05 544.712C436.096 544.243 437.237 544.008 438.474 544.008C439.712 544.008 440.853 544.243 441.898 544.712C442.944 545.181 443.829 545.811 444.554 546.6C445.301 547.389 445.877 548.307 446.282 549.352C446.709 550.397 446.922 551.507 446.922 552.68C446.922 553.832 446.72 554.931 446.314 555.976C445.909 557.021 445.333 557.939 444.586 558.728C443.84 559.517 442.944 560.147 441.898 560.616C440.874 561.085 439.733 561.32 438.474 561.32ZM432.938 552.712C432.938 553.587 433.077 554.397 433.354 555.144C433.653 555.891 434.048 556.541 434.538 557.096C435.05 557.651 435.637 558.088 436.298 558.408C436.981 558.728 437.706 558.888 438.474 558.888C439.242 558.888 439.957 558.728 440.618 558.408C441.301 558.088 441.898 557.651 442.41 557.096C442.922 556.52 443.317 555.859 443.594 555.112C443.893 554.344 444.042 553.523 444.042 552.648C444.042 551.795 443.893 550.995 443.594 550.248C443.317 549.48 442.922 548.819 442.41 548.264C441.898 547.688 441.301 547.24 440.618 546.92C439.957 546.6 439.242 546.44 438.474 546.44C437.706 546.44 436.981 546.611 436.298 546.952C435.637 547.272 435.05 547.72 434.538 548.296C434.048 548.851 433.653 549.512 433.354 550.28C433.077 551.027 432.938 551.837 432.938 552.712ZM470.7 544.296H473.42L466.316 561H463.98L460.62 552.84L457.292 561H454.956L447.852 544.296H450.54L456.3 558.216L459.116 551.272L456.236 544.328H458.572L460.62 549.672L462.668 544.328H465.004L462.156 551.272L464.972 558.216L470.7 544.296ZM490.549 561H487.733V551.656C487.733 549.864 487.456 548.563 486.901 547.752C486.368 546.941 485.547 546.536 484.437 546.536C483.861 546.536 483.285 546.653 482.709 546.888C482.133 547.101 481.589 547.4 481.077 547.784C480.565 548.168 480.117 548.627 479.733 549.16C479.349 549.693 479.061 550.28 478.869 550.92V561H476.053V544.296H478.613V547.88C479.275 546.707 480.224 545.768 481.461 545.064C482.72 544.36 484.085 544.008 485.557 544.008C486.517 544.008 487.317 544.189 487.957 544.552C488.597 544.893 489.109 545.384 489.493 546.024C489.877 546.643 490.144 547.379 490.293 548.232C490.464 549.085 490.549 550.013 490.549 551.016V561ZM494.992 537.64H497.808V556.68C497.808 557.299 497.968 557.789 498.288 558.152C498.63 558.493 499.099 558.664 499.696 558.664C499.931 558.664 500.208 558.632 500.528 558.568C500.848 558.483 501.147 558.387 501.424 558.28L501.872 560.552C501.403 560.744 500.848 560.904 500.208 561.032C499.568 561.16 499.003 561.224 498.512 561.224C497.424 561.224 496.56 560.915 495.92 560.296C495.302 559.677 494.992 558.813 494.992 557.704V537.64ZM511.381 561.32C510.122 561.32 508.97 561.085 507.925 560.616C506.901 560.147 506.015 559.517 505.269 558.728C504.543 557.939 503.978 557.021 503.573 555.976C503.167 554.931 502.965 553.832 502.965 552.68C502.965 551.507 503.167 550.397 503.573 549.352C503.999 548.307 504.575 547.389 505.301 546.6C506.047 545.811 506.933 545.181 507.957 544.712C509.002 544.243 510.143 544.008 511.381 544.008C512.618 544.008 513.759 544.243 514.805 544.712C515.85 545.181 516.735 545.811 517.461 546.6C518.207 547.389 518.783 548.307 519.189 549.352C519.615 550.397 519.829 551.507 519.829 552.68C519.829 553.832 519.626 554.931 519.221 555.976C518.815 557.021 518.239 557.939 517.493 558.728C516.746 559.517 515.85 560.147 514.805 560.616C513.781 561.085 512.639 561.32 511.381 561.32ZM505.845 552.712C505.845 553.587 505.983 554.397 506.261 555.144C506.559 555.891 506.954 556.541 507.445 557.096C507.957 557.651 508.543 558.088 509.205 558.408C509.887 558.728 510.613 558.888 511.381 558.888C512.149 558.888 512.863 558.728 513.525 558.408C514.207 558.088 514.805 557.651 515.317 557.096C515.829 556.52 516.223 555.859 516.501 555.112C516.799 554.344 516.949 553.523 516.949 552.648C516.949 551.795 516.799 550.995 516.501 550.248C516.223 549.48 515.829 548.819 515.317 548.264C514.805 547.688 514.207 547.24 513.525 546.92C512.863 546.6 512.149 546.44 511.381 546.44C510.613 546.44 509.887 546.611 509.205 546.952C508.543 547.272 507.957 547.72 507.445 548.296C506.954 548.851 506.559 549.512 506.261 550.28C505.983 551.027 505.845 551.837 505.845 552.712ZM527.529 561.32C526.739 561.32 526.003 561.192 525.321 560.936C524.638 560.659 524.041 560.285 523.529 559.816C523.038 559.347 522.643 558.803 522.345 558.184C522.067 557.544 521.929 556.851 521.929 556.104C521.929 555.336 522.099 554.643 522.441 554.024C522.782 553.384 523.262 552.84 523.881 552.392C524.521 551.944 525.267 551.592 526.121 551.336C526.995 551.08 527.945 550.952 528.969 550.952C529.779 550.952 530.601 551.027 531.433 551.176C532.265 551.325 533.001 551.528 533.641 551.784V550.44C533.641 549.075 533.257 548.008 532.489 547.24C531.721 546.451 530.633 546.056 529.225 546.056C527.539 546.056 525.769 546.707 523.913 548.008L522.985 546.184C525.139 544.733 527.305 544.008 529.481 544.008C531.678 544.008 533.385 544.595 534.601 545.768C535.838 546.941 536.457 548.595 536.457 550.728V557.544C536.457 558.205 536.755 558.547 537.353 558.568V561C537.054 561.043 536.809 561.075 536.617 561.096C536.425 561.117 536.222 561.128 536.009 561.128C535.454 561.128 535.006 560.968 534.665 560.648C534.345 560.307 534.153 559.901 534.089 559.432L534.025 558.248C533.278 559.251 532.329 560.019 531.177 560.552C530.046 561.064 528.83 561.32 527.529 561.32ZM528.265 559.208C529.267 559.208 530.195 559.027 531.049 558.664C531.923 558.28 532.585 557.779 533.033 557.16C533.438 556.755 533.641 556.339 533.641 555.912V553.448C532.275 552.915 530.857 552.648 529.385 552.648C527.977 552.648 526.825 552.947 525.929 553.544C525.054 554.141 524.617 554.92 524.617 555.88C524.617 556.349 524.702 556.787 524.873 557.192C525.065 557.597 525.321 557.949 525.641 558.248C525.982 558.547 526.377 558.781 526.825 558.952C527.273 559.123 527.753 559.208 528.265 559.208ZM547.84 561.32C546.688 561.32 545.621 561.085 544.64 560.616C543.658 560.147 542.816 559.517 542.112 558.728C541.408 557.939 540.853 557.021 540.448 555.976C540.064 554.931 539.872 553.832 539.872 552.68C539.872 551.507 540.053 550.397 540.416 549.352C540.8 548.285 541.322 547.357 541.984 546.568C542.666 545.779 543.466 545.16 544.384 544.712C545.322 544.243 546.346 544.008 547.456 544.008C548.8 544.008 549.994 544.36 551.04 545.064C552.106 545.768 552.949 546.621 553.568 547.624V537.64H556.384V557.544C556.384 558.205 556.682 558.547 557.28 558.568V561C556.981 561.043 556.736 561.075 556.544 561.096C556.373 561.117 556.202 561.128 556.032 561.128C555.477 561.128 554.986 560.947 554.56 560.584C554.154 560.2 553.952 559.763 553.952 559.272V557.864C553.29 558.952 552.405 559.805 551.296 560.424C550.208 561.021 549.056 561.32 547.84 561.32ZM548.512 558.888C549.024 558.888 549.546 558.792 550.08 558.6C550.634 558.408 551.146 558.141 551.616 557.8C552.106 557.459 552.522 557.064 552.864 556.616C553.226 556.147 553.461 555.656 553.568 555.144V550.344C553.376 549.811 553.088 549.309 552.704 548.84C552.32 548.349 551.882 547.933 551.392 547.592C550.922 547.229 550.41 546.952 549.856 546.76C549.322 546.547 548.789 546.44 548.256 546.44C547.424 546.44 546.666 546.621 545.984 546.984C545.322 547.325 544.746 547.795 544.256 548.392C543.786 548.968 543.424 549.64 543.168 550.408C542.912 551.155 542.784 551.923 542.784 552.712C542.784 553.544 542.933 554.344 543.232 555.112C543.53 555.859 543.936 556.509 544.448 557.064C544.96 557.619 545.557 558.067 546.24 558.408C546.944 558.728 547.701 558.888 548.512 558.888ZM582.97 543.048C582.714 542.749 582.373 542.461 581.946 542.184C581.52 541.907 581.04 541.661 580.506 541.448C579.973 541.213 579.386 541.032 578.746 540.904C578.128 540.755 577.477 540.68 576.794 540.68C575.024 540.68 573.722 541.011 572.89 541.672C572.08 542.333 571.674 543.24 571.674 544.392C571.674 545.011 571.792 545.523 572.026 545.928C572.261 546.333 572.624 546.685 573.114 546.984C573.626 547.261 574.256 547.507 575.002 547.72C575.749 547.933 576.634 548.157 577.658 548.392C578.832 548.648 579.888 548.947 580.826 549.288C581.786 549.608 582.597 550.013 583.258 550.504C583.941 550.995 584.453 551.592 584.794 552.296C585.157 553 585.338 553.864 585.338 554.888C585.338 555.976 585.125 556.925 584.698 557.736C584.272 558.525 583.685 559.187 582.938 559.72C582.213 560.232 581.349 560.616 580.346 560.872C579.344 561.107 578.256 561.224 577.082 561.224C575.333 561.224 573.669 560.957 572.09 560.424C570.533 559.869 569.114 559.069 567.834 558.024L569.21 555.592C569.552 555.955 569.989 556.317 570.522 556.68C571.077 557.043 571.696 557.373 572.378 557.672C573.082 557.949 573.829 558.184 574.618 558.376C575.429 558.547 576.272 558.632 577.146 558.632C578.768 558.632 580.026 558.344 580.922 557.768C581.818 557.192 582.266 556.328 582.266 555.176C582.266 554.536 582.117 554.003 581.818 553.576C581.541 553.128 581.125 552.744 580.57 552.424C580.016 552.104 579.322 551.827 578.49 551.592C577.68 551.336 576.752 551.08 575.706 550.824C574.554 550.547 573.541 550.248 572.666 549.928C571.792 549.608 571.056 549.224 570.458 548.776C569.882 548.328 569.445 547.784 569.146 547.144C568.848 546.504 568.698 545.736 568.698 544.84C568.698 543.752 568.901 542.792 569.306 541.96C569.712 541.128 570.277 540.424 571.002 539.848C571.728 539.272 572.592 538.845 573.594 538.568C574.597 538.269 575.685 538.12 576.858 538.12C578.394 538.12 579.781 538.355 581.018 538.824C582.256 539.293 583.354 539.923 584.314 540.712L582.97 543.048ZM603.174 561H600.358V551.656C600.358 549.928 600.06 548.648 599.462 547.816C598.865 546.963 597.99 546.536 596.838 546.536C596.284 546.536 595.729 546.653 595.174 546.888C594.62 547.101 594.097 547.4 593.606 547.784C593.137 548.168 592.71 548.627 592.326 549.16C591.964 549.693 591.686 550.28 591.494 550.92V561H588.678V537.64H591.494V547.88C592.156 546.664 593.052 545.715 594.182 545.032C595.313 544.349 596.55 544.008 597.894 544.008C598.876 544.008 599.708 544.189 600.39 544.552C601.073 544.915 601.617 545.405 602.022 546.024C602.428 546.643 602.716 547.389 602.886 548.264C603.078 549.117 603.174 550.035 603.174 551.016V561ZM614.945 561.32C613.687 561.32 612.535 561.096 611.489 560.648C610.444 560.179 609.548 559.549 608.801 558.76C608.055 557.971 607.468 557.053 607.041 556.008C606.636 554.941 606.433 553.821 606.433 552.648C606.433 551.475 606.636 550.365 607.041 549.32C607.468 548.275 608.055 547.357 608.801 546.568C609.569 545.779 610.476 545.16 611.521 544.712C612.567 544.243 613.719 544.008 614.977 544.008C616.236 544.008 617.377 544.243 618.401 544.712C619.447 545.181 620.332 545.811 621.057 546.6C621.783 547.368 622.337 548.275 622.721 549.32C623.127 550.344 623.329 551.411 623.329 552.52C623.329 552.755 623.319 552.968 623.297 553.16C623.297 553.352 623.287 553.501 623.265 553.608H609.409C609.473 554.44 609.665 555.197 609.985 555.88C610.305 556.563 610.721 557.149 611.233 557.64C611.745 558.131 612.321 558.515 612.961 558.792C613.623 559.069 614.316 559.208 615.041 559.208C615.553 559.208 616.055 559.144 616.545 559.016C617.036 558.867 617.495 558.675 617.921 558.44C618.348 558.205 618.721 557.917 619.041 557.576C619.383 557.235 619.639 556.851 619.809 556.424L622.241 557.096C621.964 557.715 621.58 558.28 621.089 558.792C620.62 559.304 620.065 559.752 619.425 560.136C618.807 560.499 618.113 560.787 617.345 561C616.577 561.213 615.777 561.32 614.945 561.32ZM620.673 551.528C620.609 550.739 620.407 550.013 620.065 549.352C619.745 548.669 619.329 548.093 618.817 547.624C618.327 547.155 617.751 546.792 617.089 546.536C616.428 546.259 615.724 546.12 614.977 546.12C614.231 546.12 613.527 546.259 612.865 546.536C612.204 546.792 611.617 547.165 611.105 547.656C610.615 548.125 610.209 548.691 609.889 549.352C609.591 550.013 609.409 550.739 609.345 551.528H620.673ZM633.852 561.32C632.593 561.32 631.441 561.096 630.396 560.648C629.35 560.179 628.454 559.549 627.708 558.76C626.961 557.971 626.374 557.053 625.948 556.008C625.542 554.941 625.34 553.821 625.34 552.648C625.34 551.475 625.542 550.365 625.948 549.32C626.374 548.275 626.961 547.357 627.708 546.568C628.476 545.779 629.382 545.16 630.428 544.712C631.473 544.243 632.625 544.008 633.884 544.008C635.142 544.008 636.284 544.243 637.308 544.712C638.353 545.181 639.238 545.811 639.964 546.6C640.689 547.368 641.244 548.275 641.628 549.32C642.033 550.344 642.236 551.411 642.236 552.52C642.236 552.755 642.225 552.968 642.204 553.16C642.204 553.352 642.193 553.501 642.172 553.608H628.316C628.38 554.44 628.571 555.197 628.891 555.88C629.212 556.563 629.628 557.149 630.14 557.64C630.652 558.131 631.228 558.515 631.868 558.792C632.529 559.069 633.222 559.208 633.948 559.208C634.46 559.208 634.961 559.144 635.452 559.016C635.942 558.867 636.401 558.675 636.828 558.44C637.254 558.205 637.628 557.917 637.948 557.576C638.289 557.235 638.545 556.851 638.716 556.424L641.148 557.096C640.87 557.715 640.486 558.28 639.996 558.792C639.526 559.304 638.972 559.752 638.332 560.136C637.713 560.499 637.02 560.787 636.252 561C635.484 561.213 634.684 561.32 633.852 561.32ZM639.58 551.528C639.516 550.739 639.313 550.013 638.972 549.352C638.652 548.669 638.236 548.093 637.724 547.624C637.233 547.155 636.657 546.792 635.996 546.536C635.334 546.259 634.63 546.12 633.884 546.12C633.137 546.12 632.433 546.259 631.772 546.536C631.11 546.792 630.524 547.165 630.012 547.656C629.521 548.125 629.116 548.691 628.796 549.352C628.497 550.013 628.316 550.739 628.252 551.528H639.58ZM653.85 560.168C653.679 560.253 653.455 560.36 653.178 560.488C652.9 560.595 652.58 560.712 652.218 560.84C651.876 560.947 651.492 561.032 651.066 561.096C650.66 561.181 650.234 561.224 649.786 561.224C648.762 561.224 647.876 560.947 647.13 560.392C646.383 559.816 646.01 558.931 646.01 557.736V546.504H643.738V544.296H646.01V538.728H648.826V544.296H652.57V546.504H648.826V556.872C648.868 557.491 649.071 557.939 649.434 558.216C649.796 558.493 650.223 558.632 650.714 558.632C651.268 558.632 651.77 558.547 652.218 558.376C652.687 558.184 653.007 558.035 653.178 557.928L653.85 560.168ZM662.316 561.32C660.972 561.32 659.649 561.117 658.348 560.712C657.046 560.285 655.926 559.677 654.988 558.888L656.204 557C657.185 557.747 658.166 558.312 659.148 558.696C660.129 559.059 661.164 559.24 662.252 559.24C663.468 559.24 664.428 559.005 665.132 558.536C665.857 558.045 666.22 557.363 666.22 556.488C666.22 556.083 666.124 555.741 665.932 555.464C665.74 555.165 665.452 554.909 665.068 554.696C664.684 554.483 664.193 554.291 663.595 554.12C662.998 553.949 662.305 553.768 661.516 553.576C660.513 553.32 659.649 553.075 658.924 552.84C658.198 552.605 657.601 552.328 657.132 552.008C656.662 551.688 656.321 551.304 656.108 550.856C655.894 550.408 655.788 549.853 655.788 549.192C655.788 548.36 655.948 547.624 656.268 546.984C656.609 546.323 657.068 545.779 657.644 545.352C658.22 544.904 658.892 544.573 659.66 544.36C660.449 544.125 661.292 544.008 662.188 544.008C663.446 544.008 664.62 544.211 665.708 544.616C666.796 545.021 667.713 545.555 668.46 546.216L667.18 547.912C666.476 547.293 665.686 546.835 664.812 546.536C663.937 546.216 663.041 546.056 662.124 546.056C661.1 546.056 660.225 546.28 659.5 546.728C658.796 547.155 658.444 547.848 658.444 548.808C658.444 549.192 658.508 549.512 658.636 549.768C658.785 550.024 659.02 550.248 659.34 550.44C659.66 550.632 660.065 550.803 660.556 550.952C661.068 551.101 661.676 551.261 662.38 551.432C663.489 551.688 664.449 551.955 665.26 552.232C666.092 552.488 666.774 552.797 667.308 553.16C667.862 553.523 668.268 553.949 668.524 554.44C668.801 554.931 668.94 555.528 668.94 556.232C668.94 557.789 668.342 559.027 667.148 559.944C665.953 560.861 664.342 561.32 662.316 561.32Z" fill="#4F41C2"/>
<rect x="588" width="595" height="93" rx="12" fill="#EDECFA"/>
<path d="M637.632 35.28H640.064L649.344 58H646.272L643.584 51.344H634.048L631.392 58H628.32L637.632 35.28ZM642.944 49.104L638.848 38.608L634.624 49.104H642.944ZM657.534 58.32C656.19 58.32 654.868 58.1173 653.566 57.712C652.265 57.2853 651.145 56.6773 650.206 55.888L651.422 54C652.404 54.7467 653.385 55.312 654.366 55.696C655.348 56.0587 656.382 56.24 657.47 56.24C658.686 56.24 659.646 56.0053 660.35 55.536C661.076 55.0453 661.438 54.3627 661.438 53.488C661.438 53.0827 661.342 52.7413 661.15 52.464C660.958 52.1653 660.67 51.9093 660.286 51.696C659.902 51.4827 659.412 51.2907 658.814 51.12C658.217 50.9493 657.524 50.768 656.734 50.576C655.732 50.32 654.868 50.0747 654.142 49.84C653.417 49.6053 652.82 49.328 652.35 49.008C651.881 48.688 651.54 48.304 651.326 47.856C651.113 47.408 651.006 46.8533 651.006 46.192C651.006 45.36 651.166 44.624 651.486 43.984C651.828 43.3227 652.286 42.7787 652.862 42.352C653.438 41.904 654.11 41.5733 654.878 41.36C655.668 41.1253 656.51 41.008 657.406 41.008C658.665 41.008 659.838 41.2107 660.926 41.616C662.014 42.0213 662.932 42.5547 663.678 43.216L662.398 44.912C661.694 44.2933 660.905 43.8347 660.03 43.536C659.156 43.216 658.26 43.056 657.342 43.056C656.318 43.056 655.444 43.28 654.718 43.728C654.014 44.1547 653.662 44.848 653.662 45.808C653.662 46.192 653.726 46.512 653.854 46.768C654.004 47.024 654.238 47.248 654.558 47.44C654.878 47.632 655.284 47.8027 655.774 47.952C656.286 48.1013 656.894 48.2613 657.598 48.432C658.708 48.688 659.668 48.9547 660.478 49.232C661.31 49.488 661.993 49.7973 662.526 50.16C663.081 50.5227 663.486 50.9493 663.742 51.44C664.02 51.9307 664.158 52.528 664.158 53.232C664.158 54.7893 663.561 56.0267 662.366 56.944C661.172 57.8613 659.561 58.32 657.534 58.32ZM679.267 58L673.507 49.84L670.307 52.848V58H667.491V34.64H670.307V50L678.883 41.328H681.987L675.331 48.24L682.307 58H679.267ZM699.235 58.32C698.125 58.32 697.112 58.0853 696.195 57.616C695.277 57.1467 694.488 56.5173 693.827 55.728C693.165 54.9173 692.653 53.9893 692.291 52.944C691.928 51.8987 691.747 50.8 691.747 49.648C691.747 48.4747 691.949 47.3653 692.355 46.32C692.76 45.2747 693.315 44.3573 694.019 43.568C694.744 42.7787 695.587 42.16 696.547 41.712C697.507 41.2427 698.541 41.008 699.651 41.008C700.952 41.008 702.136 41.328 703.203 41.968C704.269 42.608 705.112 43.44 705.731 44.464V41.296H708.227V61.232C708.227 61.8933 708.525 62.2347 709.123 62.256V64.688C708.611 64.752 708.109 64.784 707.619 64.784C707.021 64.784 706.499 64.56 706.051 64.112C705.624 63.6853 705.411 63.1627 705.411 62.544V54.704C703.875 57.1147 701.816 58.32 699.235 58.32ZM700.195 55.888C701.389 55.888 702.413 55.5467 703.267 54.864C704.141 54.16 704.856 53.3067 705.411 52.304V47.504C705.304 46.9707 705.08 46.4587 704.739 45.968C704.397 45.456 703.981 45.0187 703.491 44.656C703.021 44.2933 702.499 44.0053 701.923 43.792C701.368 43.5573 700.813 43.44 700.259 43.44C699.427 43.44 698.669 43.6213 697.987 43.984C697.304 44.3253 696.707 44.7947 696.195 45.392C695.704 45.968 695.32 46.64 695.043 47.408C694.765 48.1547 694.627 48.9227 694.627 49.712C694.627 50.544 694.765 51.344 695.043 52.112C695.32 52.8587 695.704 53.5093 696.195 54.064C696.685 54.6187 697.272 55.0667 697.955 55.408C698.637 55.728 699.384 55.888 700.195 55.888ZM717.924 58.32C716.175 58.32 714.852 57.7333 713.956 56.56C713.06 55.3867 712.612 53.6373 712.612 51.312V41.296H715.428V50.768C715.428 54.1813 716.612 55.888 718.98 55.888C720.132 55.888 721.209 55.5253 722.212 54.8C723.236 54.0533 723.993 53.04 724.484 51.76V41.296H727.3V54.544C727.3 55.2053 727.599 55.5467 728.196 55.568V58C727.876 58.0427 727.62 58.064 727.428 58.064C727.257 58.0853 727.087 58.096 726.916 58.096C726.361 58.096 725.892 57.936 725.508 57.616C725.145 57.2747 724.953 56.8587 724.932 56.368L724.868 54.416C724.121 55.6747 723.14 56.6453 721.924 57.328C720.708 57.9893 719.375 58.32 717.924 58.32ZM739.383 58.32C738.124 58.32 736.972 58.096 735.927 57.648C734.881 57.1787 733.985 56.5493 733.239 55.76C732.492 54.9707 731.905 54.0533 731.479 53.008C731.073 51.9413 730.871 50.8213 730.871 49.648C730.871 48.4747 731.073 47.3653 731.479 46.32C731.905 45.2747 732.492 44.3573 733.239 43.568C734.007 42.7787 734.913 42.16 735.959 41.712C737.004 41.2427 738.156 41.008 739.415 41.008C740.673 41.008 741.815 41.2427 742.839 41.712C743.884 42.1813 744.769 42.8107 745.495 43.6C746.22 44.368 746.775 45.2747 747.159 46.32C747.564 47.344 747.767 48.4107 747.767 49.52C747.767 49.7547 747.756 49.968 747.735 50.16C747.735 50.352 747.724 50.5013 747.703 50.608H733.847C733.911 51.44 734.103 52.1973 734.423 52.88C734.743 53.5627 735.159 54.1493 735.671 54.64C736.183 55.1307 736.759 55.5147 737.399 55.792C738.06 56.0693 738.753 56.208 739.479 56.208C739.991 56.208 740.492 56.144 740.983 56.016C741.473 55.8667 741.932 55.6747 742.359 55.44C742.785 55.2053 743.159 54.9173 743.479 54.576C743.82 54.2347 744.076 53.8507 744.247 53.424L746.679 54.096C746.401 54.7147 746.017 55.28 745.527 55.792C745.057 56.304 744.503 56.752 743.863 57.136C743.244 57.4987 742.551 57.7867 741.783 58C741.015 58.2133 740.215 58.32 739.383 58.32ZM745.111 48.528C745.047 47.7387 744.844 47.0133 744.503 46.352C744.183 45.6693 743.767 45.0933 743.255 44.624C742.764 44.1547 742.188 43.792 741.527 43.536C740.865 43.2587 740.161 43.12 739.415 43.12C738.668 43.12 737.964 43.2587 737.303 43.536C736.641 43.792 736.055 44.1653 735.543 44.656C735.052 45.1253 734.647 45.6907 734.327 46.352C734.028 47.0133 733.847 47.7387 733.783 48.528H745.111ZM756.753 58.32C755.409 58.32 754.086 58.1173 752.785 57.712C751.484 57.2853 750.364 56.6773 749.425 55.888L750.641 54C751.622 54.7467 752.604 55.312 753.585 55.696C754.566 56.0587 755.601 56.24 756.689 56.24C757.905 56.24 758.865 56.0053 759.569 55.536C760.294 55.0453 760.657 54.3627 760.657 53.488C760.657 53.0827 760.561 52.7413 760.369 52.464C760.177 52.1653 759.889 51.9093 759.505 51.696C759.121 51.4827 758.63 51.2907 758.033 51.12C757.436 50.9493 756.742 50.768 755.953 50.576C754.95 50.32 754.086 50.0747 753.361 49.84C752.636 49.6053 752.038 49.328 751.569 49.008C751.1 48.688 750.758 48.304 750.545 47.856C750.332 47.408 750.225 46.8533 750.225 46.192C750.225 45.36 750.385 44.624 750.705 43.984C751.046 43.3227 751.505 42.7787 752.081 42.352C752.657 41.904 753.329 41.5733 754.097 41.36C754.886 41.1253 755.729 41.008 756.625 41.008C757.884 41.008 759.057 41.2107 760.145 41.616C761.233 42.0213 762.15 42.5547 762.897 43.216L761.617 44.912C760.913 44.2933 760.124 43.8347 759.249 43.536C758.374 43.216 757.478 43.056 756.561 43.056C755.537 43.056 754.662 43.28 753.937 43.728C753.233 44.1547 752.881 44.848 752.881 45.808C752.881 46.192 752.945 46.512 753.073 46.768C753.222 47.024 753.457 47.248 753.777 47.44C754.097 47.632 754.502 47.8027 754.993 47.952C755.505 48.1013 756.113 48.2613 756.817 48.432C757.926 48.688 758.886 48.9547 759.697 49.232C760.529 49.488 761.212 49.7973 761.745 50.16C762.3 50.5227 762.705 50.9493 762.961 51.44C763.238 51.9307 763.377 52.528 763.377 53.232C763.377 54.7893 762.78 56.0267 761.585 56.944C760.39 57.8613 758.78 58.32 756.753 58.32ZM775.35 57.168C775.179 57.2533 774.955 57.36 774.678 57.488C774.4 57.5947 774.08 57.712 773.718 57.84C773.376 57.9467 772.992 58.032 772.566 58.096C772.16 58.1813 771.734 58.224 771.286 58.224C770.262 58.224 769.376 57.9467 768.63 57.392C767.883 56.816 767.51 55.9307 767.51 54.736V43.504H765.238V41.296H767.51V35.728H770.326V41.296H774.07V43.504H770.326V53.872C770.368 54.4907 770.571 54.9387 770.934 55.216C771.296 55.4933 771.723 55.632 772.214 55.632C772.768 55.632 773.27 55.5467 773.718 55.376C774.187 55.184 774.507 55.0347 774.678 54.928L775.35 57.168ZM777.96 58V41.296H780.776V58H777.96ZM777.96 38.16V34.64H780.776V38.16H777.96ZM792.631 58.32C791.372 58.32 790.22 58.0853 789.175 57.616C788.151 57.1467 787.265 56.5173 786.519 55.728C785.793 54.9387 785.228 54.0213 784.823 52.976C784.417 51.9307 784.215 50.832 784.215 49.68C784.215 48.5067 784.417 47.3973 784.823 46.352C785.249 45.3067 785.825 44.3893 786.551 43.6C787.297 42.8107 788.183 42.1813 789.207 41.712C790.252 41.2427 791.393 41.008 792.631 41.008C793.868 41.008 795.009 41.2427 796.055 41.712C797.1 42.1813 797.985 42.8107 798.711 43.6C799.457 44.3893 800.033 45.3067 800.439 46.352C800.865 47.3973 801.079 48.5067 801.079 49.68C801.079 50.832 800.876 51.9307 800.471 52.976C800.065 54.0213 799.489 54.9387 798.743 55.728C797.996 56.5173 797.1 57.1467 796.055 57.616C795.031 58.0853 793.889 58.32 792.631 58.32ZM787.095 49.712C787.095 50.5867 787.233 51.3973 787.511 52.144C787.809 52.8907 788.204 53.5413 788.695 54.096C789.207 54.6507 789.793 55.088 790.455 55.408C791.137 55.728 791.863 55.888 792.631 55.888C793.399 55.888 794.113 55.728 794.775 55.408C795.457 55.088 796.055 54.6507 796.567 54.096C797.079 53.52 797.473 52.8587 797.751 52.112C798.049 51.344 798.199 50.5227 798.199 49.648C798.199 48.7947 798.049 47.9947 797.751 47.248C797.473 46.48 797.079 45.8187 796.567 45.264C796.055 44.688 795.457 44.24 794.775 43.92C794.113 43.6 793.399 43.44 792.631 43.44C791.863 43.44 791.137 43.6107 790.455 43.952C789.793 44.272 789.207 44.72 788.695 45.296C788.204 45.8507 787.809 46.512 787.511 47.28C787.233 48.0267 787.095 48.8373 787.095 49.712ZM818.987 58H816.171V48.656C816.171 46.864 815.893 45.5627 815.339 44.752C814.805 43.9413 813.984 43.536 812.875 43.536C812.299 43.536 811.723 43.6533 811.147 43.888C810.571 44.1013 810.027 44.4 809.515 44.784C809.003 45.168 808.555 45.6267 808.171 46.16C807.787 46.6933 807.499 47.28 807.307 47.92V58H804.491V41.296H807.051V44.88C807.712 43.7067 808.661 42.768 809.899 42.064C811.157 41.36 812.523 41.008 813.995 41.008C814.955 41.008 815.755 41.1893 816.395 41.552C817.035 41.8933 817.547 42.384 817.931 43.024C818.315 43.6427 818.581 44.3787 818.731 45.232C818.901 46.0853 818.987 47.0133 818.987 48.016V58Z" fill="#4F41C2"/>
<path d="M840 305H884.5C907.127 305 918.441 305 925.471 297.971C932.5 290.941 932.5 279.627 932.5 257V109" stroke="#8275DA" stroke-width="4" stroke-linecap="round" stroke-linejoin="round"/>
<circle r="7" transform="matrix(1 0 0 -1 933 105)" stroke="#8275DA" stroke-width="4" stroke-linecap="round" stroke-linejoin="round"/>
<path d="M848 297L840 305L848 313" stroke="#8275DA" stroke-width="4" stroke-linecap="round" stroke-linejoin="round"/>
<path d="M540 496V377" stroke="#B6AEE9" stroke-width="4" stroke-linecap="square" stroke-linejoin="round" stroke-dasharray="2 10"/>
<path d="M532 488L540 496L548 488" stroke="#B6AEE9" stroke-width="4" stroke-linecap="round" stroke-linejoin="round"/>
<circle r="7" transform="matrix(0 -1 -1 0 540 370)" stroke="#B6AEE9" stroke-width="4" stroke-linecap="round" stroke-linejoin="round"/>
</svg>
